<?xml version="1.0" encoding="utf-8"?>
<!-- Generator: Adobe Illustrator 23.1.1, SVG Export Plug-In . SVG Version: 6.00 Build 0)  -->
<svg version="1.1" id="Layer_1" xmlns="http://www.w3.org/2000/svg" xmlns:xlink="http://www.w3.org/1999/xlink" x="0px" y="0px"
	 viewBox="0 0 288 264" style="enable-background:new 0 0 288 264;" xml:space="preserve">
<style type="text/css">
	.st0{fill:#FFFFFF;}
</style>
<g>
	<path class="st0" d="M115.5,36.8v190.3L253,132L115.5,36.8z M282.1,142.3l-172,119c-8.3,5.7-19.6-0.2-19.6-10.3V13
		c0-10.1,11.3-16,19.6-10.3l172,119C289.3,126.7,289.3,137.3,282.1,142.3z"/>
	<path class="st0" d="M42.5,107h107c4.4,0,8-3.6,8-8s-3.6-8-8-8h-107c-4.4,0-8,3.6-8,8S38.1,107,42.5,107z M42.5,177h107
		c4.4,0,8-3.6,8-8s-3.6-8-8-8h-107c-4.4,0-8,3.6-8,8S38.1,177,42.5,177z M8,143h168c4.4,0,8-3.6,8-8s-3.6-8-8-8H8c-4.4,0-8,3.6-8,8
		S3.6,143,8,143z"/>
</g>
</svg>
