<?xml version="1.0" encoding="utf-8"?>
<!-- Generator: Adobe Illustrator 23.1.1, SVG Export Plug-In . SVG Version: 6.00 Build 0)  -->
<svg version="1.1" id="Layer_1" xmlns="http://www.w3.org/2000/svg" xmlns:xlink="http://www.w3.org/1999/xlink" x="0px" y="0px"
	 viewBox="0 0 972 264" style="enable-background:new 0 0 972 264;" xml:space="preserve">
<style type="text/css">
	.st0{fill:#FFFFFF;}
</style>
<g>
	<g>
		<path class="st0" d="M115.5,36.8v190.3L253,132L115.5,36.8z M282.1,142.3l-172,119c-8.3,5.7-19.6-0.2-19.6-10.3V13
			c0-10.1,11.3-16,19.6-10.3l172,119C289.3,126.7,289.3,137.3,282.1,142.3z"/>
		<path class="st0" d="M42.5,107h107c4.4,0,8-3.6,8-8s-3.6-8-8-8h-107c-4.4,0-8,3.6-8,8S38.1,107,42.5,107z M42.5,177h107
			c4.4,0,8-3.6,8-8s-3.6-8-8-8h-107c-4.4,0-8,3.6-8,8S38.1,177,42.5,177z M8,143h168c4.4,0,8-3.6,8-8s-3.6-8-8-8H8c-4.4,0-8,3.6-8,8
			S3.6,143,8,143z"/>
	</g>
	<path class="st0" d="M356.5,184.4c-7.6,0-14.3-0.8-20.1-2.3c-5.8-1.5-10.2-3.4-13.3-5.7c-3.1-2.2-4.6-4.4-4.6-6.4
		c0-1.6,0.6-3.5,1.8-5.8c1.2-2.3,2.6-4.3,4.2-5.9c1.6-1.7,3-2.5,4.1-2.5c0.7,0,2.1,0.6,4.3,1.7c3.3,1.7,6.4,3.1,9.3,4.1
		c2.9,1,6.3,1.5,10.1,1.5c4.2,0,7.8-0.8,10.8-2.5s4.4-4.6,4.4-8.8c0-2.4-0.8-4.5-2.3-6.3c-1.5-1.8-3.5-3.2-5.8-4.4
		c-2.4-1.2-5.6-2.6-9.6-4.3l-7.2-3.1c-4.4-2.1-8.1-4.4-11.2-7c-3.1-2.5-5.7-5.9-7.6-10.1c-2-4.2-3-9.3-3-15.3
		c0-7.4,1.8-13.5,5.5-18.4c3.6-4.9,8.4-8.5,14.2-10.8c5.8-2.3,12-3.4,18.7-3.4c5.4,0,10.4,0.6,14.8,1.7s7.9,2.6,10.4,4.3
		c2.5,1.8,3.8,3.5,3.8,5.3c0,1.5-0.5,3.3-1.4,5.6c-0.9,2.3-2.1,4.3-3.5,5.9c-1.4,1.7-2.7,2.5-3.9,2.5c-0.5,0-1.5-0.3-2.9-0.9
		c-2.2-0.9-4.5-1.6-6.8-2.2c-2.3-0.6-5-0.9-8.3-0.9c-5.6,0-9.5,0.9-11.7,2.7c-2.2,1.8-3.3,3.9-3.3,6.3c0,2.8,0.7,5.1,2.2,7
		c1.5,1.9,3.4,3.4,5.6,4.6c2.3,1.2,5.4,2.6,9.5,4.2c6.1,2.6,11.1,5.1,15,7.4c3.9,2.3,7.2,5.7,10,10c2.8,4.4,4.2,9.9,4.2,16.7
		c0,8.3-1.7,15.1-5.2,20.4c-3.5,5.3-8,9.1-13.4,11.5C368.8,183.2,362.9,184.4,356.5,184.4L356.5,184.4L356.5,184.4z M453.2,184.4
		c-9.8,0-18.2-1.5-25.2-4.6c-7-3.1-12.3-7.6-16-13.4c-3.7-5.8-5.5-12.9-5.5-21.1V74.8c0-1.8,0.8-3.1,2.4-3.9c1.6-0.9,4-1.3,7.4-1.3
		h5.5c3.3,0,5.8,0.4,7.3,1.3c1.5,0.9,2.3,2.2,2.3,3.9v68.8c0,3.8,0.9,7.1,2.8,10.1c1.8,3,4.4,5.3,7.8,6.9c3.3,1.7,7.1,2.5,11.4,2.5
		c4.3,0,8.1-0.8,11.5-2.5s6-4,7.9-6.9c1.9-3,2.8-6.3,2.8-10.1V74.8c0-1.8,0.8-3.1,2.3-3.9c1.5-0.9,4-1.3,7.3-1.3h5.4
		c3.3,0,5.8,0.4,7.3,1.3c1.5,0.9,2.3,2.2,2.3,3.9v70.4c0,8.2-1.8,15.3-5.5,21.1c-3.7,5.8-9,10.3-16,13.4
		C471.4,182.8,463,184.4,453.2,184.4L453.2,184.4L453.2,184.4z M531.6,183.3c-6.5,0-9.7-1.7-9.7-5.1V76.4c0-2.2,0.5-3.9,1.5-4.9
		c1-1,2.7-1.5,4.9-1.5h31.5c26.8,0,40.1,10.1,40.1,30.2c0,6.1-1.7,11.4-5.1,15.8c-3.4,4.4-8,7.7-13.8,9.9v0.6c2,0.8,4.1,2.7,6.3,5.5
		s4,5.9,5.3,9.4L607,177c0.5,1.5,0.7,2.5,0.7,3.1c0,2.1-3.2,3.2-9.6,3.2h-6.6c-5.4,0-8.5-1.1-9.4-3.4l-12.8-31.5
		c-1.2-2.4-2.4-4.3-3.5-5.6s-2.7-2.3-4.7-3c-2-0.7-4.7-1-8.1-1h-6.3v39.5c0,3.4-3.2,5.1-9.7,5.1L531.6,183.3L531.6,183.3
		L531.6,183.3z M562,117.2c2.2,0,4.2-0.6,6.2-1.9c1.9-1.2,3.5-2.9,4.6-5c1.2-2.1,1.7-4.4,1.7-7c0-3.8-1.2-6.7-3.7-8.9
		s-5.8-3.3-9.9-3.3h-14.2v26.2L562,117.2L562,117.2L562,117.2z M630.1,183.3c-6.5,0-9.7-1.7-9.7-5.1V76.4c0-2.2,0.5-3.9,1.5-4.9
		c1-1,2.7-1.5,4.9-1.5h53.9c1.7,0,2.9,0.6,3.7,1.9c0.8,1.3,1.1,3.3,1.1,6.2V83c0,2.8-0.4,4.9-1.1,6.2c-0.8,1.3-2,1.9-3.7,1.9h-35.5
		v23.6h34.3c1.7,0,2.9,0.6,3.7,1.9c0.8,1.3,1.2,3.3,1.2,6.1v5c0,2.8-0.4,4.9-1.2,6.2c-0.8,1.3-2,2-3.7,2h-34.3v42.3
		c0,3.4-3.2,5.1-9.7,5.1L630.1,183.3L630.1,183.3L630.1,183.3z M700.4,183.3c-6.6,0-9.9-1.2-9.9-3.5c0-0.7,0.2-1.6,0.6-2.9L726.7,73
		c0.8-2.3,3.9-3.5,9.2-3.5h8.4c5.3,0,8.3,1.2,9.2,3.5L789,176.8c0.3,1.2,0.5,2.2,0.5,2.9c0,1.2-0.7,2.1-2,2.7
		c-1.3,0.6-3.3,0.9-6.1,0.9h-7.1c-2.5,0-4.6-0.3-6.1-0.8c-1.5-0.5-2.5-1.4-2.9-2.6l-6.5-19.7h-38.1l-6.5,19.7
		c-0.7,2.2-3.1,3.4-7.4,3.4L700.4,183.3L700.4,183.3z M751.8,138.9l-9.2-28.7c-0.5-1.5-1-3.1-1.4-5c-0.4-1.8-0.7-3.6-1-5.4h-0.6
		l-0.4,2c-0.6,3.6-1.3,6.4-2.1,8.4l-9.5,28.7L751.8,138.9L751.8,138.9z M849.8,184.4c-18.2,0-31.6-4.7-40.2-14.2
		c-8.6-9.4-12.9-24.1-12.9-44c0-38.3,18-57.5,53.9-57.5c4.9,0,10,0.5,15.3,1.5c5.3,1,9.7,2.3,13.2,4c3.5,1.7,5.3,3.6,5.3,5.8
		c0,1.5-0.6,3.5-1.8,5.9c-1.2,2.5-2.7,4.6-4.3,6.5c-1.7,1.9-3.1,2.8-4.4,2.8c-0.3,0-1.1-0.3-2.5-0.9c-3-1.2-6-2.2-9.1-3
		c-3.2-0.8-7.2-1.2-12.1-1.2c-9.5,0-16.5,3-21.1,9c-4.6,6-6.9,15.1-6.9,27.3s2.3,21.3,6.9,27.5c4.6,6.2,11.5,9.3,20.7,9.3
		c4.8,0,8.9-0.5,12.5-1.5c3.5-1,7-2.2,10.4-3.7c0.2-0.1,0.7-0.3,1.6-0.7c0.9-0.4,1.6-0.6,2-0.6c1.6,0,3.1,0.9,4.5,2.8
		c1.5,1.8,2.6,3.9,3.5,6.3c0.9,2.3,1.4,4,1.4,5c0,3-2,5.5-6,7.5c-4,2.1-8.7,3.6-14.3,4.6C859.9,183.9,854.7,184.4,849.8,184.4
		L849.8,184.4L849.8,184.4z M907.1,183c-2.2,0-3.9-0.5-4.9-1.5c-1-1-1.5-2.7-1.5-4.9V76.4c0-2.2,0.5-3.9,1.5-4.9
		c1-1,2.7-1.5,4.9-1.5h59.1c1.7,0,2.9,0.6,3.7,1.9c0.8,1.3,1.1,3.3,1.1,6.2V83c0,2.8-0.4,4.9-1.1,6.2c-0.8,1.3-2,1.9-3.7,1.9h-40.7
		v23.4h36.3c1.7,0,2.9,0.6,3.7,1.9c0.8,1.3,1.1,3.3,1.1,6.2v5c0,2.8-0.4,4.9-1.1,6.2c-0.8,1.3-2,1.9-3.7,1.9h-36.3v26.2h40.8
		c1.7,0,2.9,0.6,3.7,1.9c0.8,1.3,1.1,3.3,1.1,6.1v5.1c0,2.8-0.4,4.9-1.1,6.2c-0.8,1.3-2,1.9-3.7,1.9L907.1,183L907.1,183z"/>
</g>
</svg>
